<?xml version="1.0" encoding="UTF-8"?>
<!-- Generator: visioncortex VTracer 0.6.4 -->
<svg version="1.1" xmlns="http://www.w3.org/2000/svg" width="512" height="512">
<path d="M0 0 C168.96 0 337.92 0 512 0 C512 168.96 512 337.92 512 512 C343.04 512 174.08 512 0 512 C0 343.04 0 174.08 0 0 Z " fill="#FEFEFE" transform="translate(0,0)"/>
<path d="M0 0 C168.96 0 337.92 0 512 0 C512 104.61 512 209.22 512 317 C503.09 317 494.18 317 485 317 C484.48 313.66 483.97 310.32 483.44 306.88 C480.7 291 474.59 278.18 461.38 268.38 C446.86 258.77 435.13 255.63 418 256 C417.74 255.22 417.74 255.22 417.48 254.42 C415.73 249.09 413.85 243.83 411.87 238.58 C411.02 236.06 410.46 233.61 410 231 C410.5 230.62 410.99 230.24 411.5 229.86 C422.58 220.88 426.89 209.18 431 196 C431.21 195.34 431.43 194.69 431.65 194.01 C436.62 178.59 436.56 163.75 429.88 148.88 C420.5 131.81 402.95 124.5 385.02 119.12 C373.25 115.78 359.4 113.13 348 119 C345.49 121 345.49 121 344 123 C340.9 122.02 337.94 120.97 334.98 119.63 C324.39 114.87 313.77 113.12 302.33 111.48 C298.87 110.98 295.43 110.45 291.98 109.9 C274.57 107.18 274.57 107.18 257 106 C256.28 105.98 255.57 105.95 254.83 105.92 C245.4 105.74 236.06 106.79 226.69 107.75 C225.8 107.84 224.91 107.93 223.99 108.02 C201.01 110.39 178.19 112.87 158 125 C157.5 124.09 157.01 123.19 156.5 122.25 C153.46 117.67 148.81 115.67 143.58 114.42 C128.25 111.93 114.59 117 102.19 125.67 C88.24 135.86 72.91 147.89 70 166 C68.74 180.06 73.99 191.83 80.25 204.12 C80.78 205.21 81.32 206.3 81.87 207.43 C88.53 220.73 88.53 220.73 99 231 C98.83 231.52 98.66 232.05 98.48 232.59 C94.66 244.82 91.91 257.33 90 270 C88.98 270.01 88.98 270.01 87.94 270.03 C84.81 270.08 81.69 270.17 78.56 270.25 C77.49 270.26 76.42 270.28 75.32 270.29 C64.1 270.64 56.2 274.38 48 282 C38.21 292.5 34.35 303.35 31 317 C20.77 317 10.54 317 0 317 C0 212.39 0 107.78 0 0 Z " fill="#FEFEFE" transform="translate(0,0)"/>
<path d="M0 0 C1.8 0.25 3.6 0.5 5.4 0.74 C18.36 2.5 30.92 4.69 42.55 11.01 C44.19 11.78 44.19 11.78 45.86 12.57 C48.18 11.68 49.76 10.65 51.67 9.07 C60.09 3.3 71.7 5 81.17 6.7 C100.08 10.88 121.36 18.91 132.61 35.38 C140.67 49.18 141.87 64.61 137.97 79.87 C133.67 95.48 128.6 110.7 115.86 121.57 C115.2 121.57 114.54 121.57 113.86 121.57 C114.19 122.3 114.51 123.02 114.85 123.77 C117.96 130.93 120.2 137.95 121.86 145.57 C122.87 145.52 123.87 145.48 124.9 145.43 C142.66 144.85 157.38 150.83 170.8 162.38 C181.96 173.11 187.26 186.34 188.86 201.57 C188.86 203.55 188.86 205.53 188.86 207.57 C197.77 207.57 206.68 207.57 215.86 207.57 C215.86 210.87 215.86 214.17 215.86 217.57 C215.04 217.55 214.22 217.54 213.37 217.52 C209.64 217.47 205.91 217.49 202.17 217.51 C200.23 217.47 200.23 217.47 198.25 217.42 C194.58 217.47 191.41 217.61 187.86 218.57 C185.79 220.72 184.84 222.52 183.8 225.3 C181.99 229.69 177.94 232.32 173.97 234.71 C169.02 236.73 163.15 236.33 158.14 234.67 C156 233.71 153.92 232.71 151.86 231.57 C151 232.35 150.13 233.14 149.24 233.95 C143.62 239.03 136.85 238.96 129.67 238.95 C128.27 238.94 128.27 238.94 126.85 238.94 C120.12 238.82 113.66 238.31 107.86 234.57 C105.29 231.64 104.4 229.43 103.86 225.57 C103.22 226.04 102.58 226.52 101.92 227.01 C94.69 230.7 86.46 230.02 78.86 227.57 C74.44 224.3 73.97 223.1 72.86 217.57 C50.75 217.57 28.64 217.57 5.86 217.57 C5.2 219.22 4.54 220.87 3.86 222.57 C-4.65 234.67 -14.28 243.28 -28.14 248.57 C-28.82 248.84 -29.51 249.1 -30.22 249.38 C-41.93 253.07 -58.51 251.29 -69.38 245.99 C-75.87 242.04 -80.48 237.95 -83.33 230.76 C-83.65 229.97 -83.97 229.18 -84.31 228.36 C-85.14 225.57 -85.14 225.57 -86.14 217.57 C-108.25 217.57 -130.36 217.57 -153.14 217.57 C-154.13 220.54 -155.12 223.51 -156.14 226.57 C-159.07 232.33 -162.99 238 -169.14 240.57 C-174.81 240.67 -178.49 238.51 -183.14 235.57 C-183.3 236.25 -183.47 236.93 -183.64 237.63 C-186.26 242.76 -190.38 246.34 -195.64 248.68 C-203.46 251.2 -209.55 251.08 -217.22 248.23 C-219.12 247.46 -219.12 247.46 -221.14 247.57 C-221.67 248.48 -222.21 249.39 -222.76 250.32 C-225.34 254.35 -228.65 256.11 -233.14 257.57 C-239.62 258.39 -244.63 257.13 -250.14 253.57 C-258.75 246.12 -264.93 234.96 -266.14 223.57 C-266.14 221.59 -266.14 219.61 -266.14 217.57 C-276.04 217.57 -285.94 217.57 -296.14 217.57 C-296.14 214.27 -296.14 210.97 -296.14 207.57 C-285.91 207.57 -275.68 207.57 -265.14 207.57 C-264.81 204.6 -264.48 201.63 -264.14 198.57 C-261.75 189.96 -258.01 183.23 -252.14 176.57 C-251.58 175.87 -251.02 175.17 -250.45 174.45 C-245.06 167.83 -238.56 162.6 -230.14 160.57 C-226.01 160.34 -221.9 160.38 -217.76 160.45 C-216.09 160.46 -216.09 160.46 -214.38 160.47 C-211.63 160.5 -208.88 160.53 -206.14 160.57 C-206.1 159.82 -206.07 159.08 -206.03 158.31 C-205.36 145.7 -202.44 133.05 -197.14 121.57 C-197.73 121.32 -198.32 121.07 -198.93 120.82 C-206.44 116.58 -210.53 106.58 -214.26 99.2 C-215.01 97.75 -215.01 97.75 -215.78 96.27 C-230.41 67.78 -230.41 67.78 -225.95 51.32 C-219.38 32.41 -199.66 16.84 -182.23 8.11 C-179.89 7.15 -177.56 6.32 -175.14 5.57 C-174.49 5.35 -173.84 5.13 -173.17 4.9 C-164.11 2.16 -153.75 2.57 -145.14 6.57 C-142.2 9.07 -142.2 9.07 -140.14 11.57 C-139.15 12.58 -138.15 13.58 -137.14 14.57 C-136.67 14.25 -136.2 13.93 -135.72 13.6 C-99.14 -10.39 -41.16 -5.79 0 0 Z " fill="#692D16" transform="translate(296.13836669921875,109.42962646484375)"/>
<path d="M0 0 C0.71 -0 1.41 -0.01 2.14 -0.01 C15.36 -0.01 28.05 1.44 41.06 3.76 C44.36 4.32 47.67 4.8 50.98 5.26 C77.8 9.02 77.8 9.02 87.73 16.02 C89.99 19.3 89.57 22.25 89.31 26.06 C89.04 35.04 90.61 42.77 93.31 51.31 C93.55 52.07 93.78 52.84 94.03 53.62 C99.52 71.06 106.37 89.21 118.31 103.31 C119.37 104.61 119.37 104.61 120.46 105.94 C127.55 114.28 135.99 121.75 147.12 123.26 C149.94 123.33 152.55 122.84 155.31 122.31 C157.89 129.59 159.98 136.71 161.31 144.31 C159.61 145.17 159.61 145.17 157.88 146.04 C141.83 154.19 129.53 164.44 122.88 181.81 C120.85 188.93 119.11 196.13 117.31 203.31 C96.52 203.31 75.73 203.31 54.31 203.31 C55.44 180.73 55.44 180.73 61.31 172.31 C65.78 164.64 68.93 155.63 70.83 146.95 C71.31 145.31 71.31 145.31 73.38 143.88 C74.33 143.1 74.33 143.1 75.31 142.31 C75.65 139.69 75.65 139.69 75.31 137.31 C73.21 136.33 73.21 136.33 70.31 136.31 C68.23 137.38 66.38 138.62 64.47 139.99 C57 144.57 47.78 144.25 39.31 143.31 C29.96 140.97 21.41 135.15 13.16 130.29 C7.18 127.13 2.01 126.31 -4.69 127.31 C-9.25 129.02 -13.43 131.27 -17.69 133.62 C-29.85 140.22 -40.59 144.79 -54.69 143.31 C-57.08 142.56 -58.6 141.74 -60.69 140.31 C-60.01 139.63 -59.33 138.95 -58.62 138.25 C-58.17 137.79 -57.71 137.33 -57.23 136.85 C-56.2 135.82 -55.14 134.8 -54.08 133.79 C-49.63 129.53 -46.12 125.02 -42.75 119.88 C-42.24 119.1 -41.73 118.33 -41.2 117.53 C-36.38 110.1 -32.41 102.34 -28.69 94.31 C-27.96 95.07 -27.24 95.83 -26.49 96.61 C-19.11 103.73 -10.89 107.23 -0.75 107.62 C4.37 107.51 8.62 106.28 13.31 104.31 C14.02 104.03 14.72 103.76 15.44 103.47 C21.4 100.85 24.92 96.95 28.45 91.58 C30.72 85.61 30.22 76.7 28.59 70.62 C25.59 64.2 20.62 61.04 14.31 58.31 C6.14 57.3 -1.13 57.83 -8.59 61.36 C-11.23 62.56 -13.81 63.01 -16.69 63.31 C-16.62 62.76 -16.54 62.21 -16.47 61.64 C-14.72 46 -15.23 30.72 -18.3 15.31 C-18.89 12.28 -19.38 9.23 -19.88 6.19 C-20.03 5.24 -20.19 4.28 -20.36 3.3 C-20.47 2.65 -20.57 1.99 -20.69 1.31 C-13.81 0.02 -6.98 0.02 0 0 Z " fill="#FDFCFC" transform="translate(249.6875,113.6875)"/>
<path d="M0 0 C11.23 35.94 1.4 68.83 -15.4 101.1 C-28.12 124.19 -50 143.93 -75 153 C-83.09 154.52 -91.49 154.15 -99.69 154.12 C-100.97 154.13 -102.25 154.13 -103.56 154.14 C-104.81 154.14 -106.05 154.13 -107.32 154.13 C-109 154.13 -109 154.13 -110.7 154.13 C-115.54 153.94 -119.69 153.75 -123.93 151.32 C-126 149 -126 149 -126.45 146.14 C-125.51 136.42 -123.45 127.15 -120 118 C-118 117 -118 117 -115.38 116.81 C-107.61 114.94 -102.42 108.87 -98.31 102.3 C-97.76 101.34 -97.21 100.38 -96.64 99.39 C-96.03 98.31 -95.41 97.24 -94.77 96.13 C-94.12 94.99 -93.48 93.86 -92.81 92.69 C-92.14 91.51 -91.47 90.33 -90.79 89.15 C-89.46 86.82 -88.14 84.5 -86.81 82.17 C-85.29 79.51 -83.75 76.86 -82.19 74.22 C-74.37 60.89 -68.6 46.97 -69.12 31.24 C-69.4 18.73 -69.4 18.73 -65.75 14.22 C-62.31 11.94 -58.87 10.38 -55 9 C-54.28 8.72 -53.56 8.45 -52.81 8.16 C-36 1.89 -17.88 -0.35 0 0 Z " fill="#D07F31" transform="translate(224,116)"/>
<path d="M0 0 C1.12 0.63 2.24 1.26 3.39 1.9 C4.22 2.33 5.04 2.77 5.88 3.21 C14.86 8.25 20.18 15.89 23.49 25.51 C27.16 39.28 24.38 51.36 20.14 64.59 C19.87 65.47 19.59 66.35 19.31 67.25 C15.2 79.55 7.89 88.28 -3.55 94.37 C-7.46 95.38 -10.61 94.49 -14.03 92.48 C-37.4 73.53 -52.43 41.09 -57.61 11.9 C-58.32 4.58 -57.89 -0.93 -54.19 -7.36 C-42.53 -20.19 -12.02 -6.54 0 0 Z " fill="#D07E31" transform="translate(402.60546875,133.09765625)"/>
<path d="M0 0 C4.88 2.87 9.37 6.02 13.74 9.61 C14.47 10.21 15.2 10.8 15.96 11.41 C24.4 18.99 29.65 30.39 30.74 41.61 C30.85 42.64 30.85 42.64 30.96 43.7 C31.21 46.08 31.42 48.47 31.61 50.86 C31.69 51.63 31.76 52.4 31.84 53.19 C32.18 58.56 31.29 61.33 27.74 65.61 C23.96 69.39 21.09 70.52 15.74 70.61 C11.37 69.56 7.59 68.21 4.74 64.61 C4.07 61.94 3.96 59.38 3.74 56.61 C2.09 56.61 0.44 56.61 -1.26 56.61 C-2.69 61.29 -3.67 65.74 -4.26 70.61 C-9.65 72.84 -14.53 72.95 -20.26 72.93 C-21.14 72.94 -22.01 72.96 -22.92 72.97 C-28.14 72.98 -31.73 72.48 -36.26 69.61 C-36.59 69.28 -36.92 68.95 -37.26 68.61 C-37.21 66.47 -37.21 66.47 -36.95 63.8 C-36.87 62.93 -36.79 62.06 -36.71 61.16 C-36.26 58.63 -35.53 56.83 -34.26 54.61 C-35.25 53.62 -36.24 52.63 -37.26 51.61 C-40.16 53.19 -42.36 54.71 -44.7 57.05 C-49.3 61.65 -52.36 63.86 -58.95 63.93 C-62.07 63.84 -64.28 63.61 -67.26 62.61 C-72.02 53.1 -68.94 42.23 -65.8 32.7 C-61.19 19.81 -51.27 8.16 -39.26 1.61 C-38.4 1.13 -37.54 0.64 -36.66 0.14 C-25.28 -5.49 -11.42 -5.61 0 0 Z " fill="#FCFBFB" transform="translate(444.26171875,267.38671875)"/>
<path d="M0 0 C1.54 -0.02 1.54 -0.02 3.11 -0.04 C8.77 -0.05 13.39 0.39 18.75 2.19 C20.33 2.41 21.91 2.62 23.5 2.81 C33.12 4.69 41.19 12.39 46.75 20.19 C48.31 22.78 49.57 25.41 50.75 28.19 C51.05 28.79 51.35 29.39 51.66 30.01 C54.67 36.67 55.14 44.67 52.99 51.66 C51.24 55.36 49.14 58.82 45.75 61.19 C43.44 61.38 43.44 61.38 40.75 60.19 C38.93 58.43 37.24 56.61 35.59 54.68 C33.21 52.75 31.74 52.91 28.75 53.19 C28.53 53.91 28.31 54.64 28.09 55.38 C26.08 61.5 24.25 66.52 18.75 70.19 C13.33 72.49 9.38 72.37 3.75 71.19 C0.88 70 0.88 70 -1.25 68.19 C-2.56 65 -2.56 65 -3.25 62.19 C-6.17 61.94 -6.17 61.94 -9.25 62.19 C-11.48 65.16 -11.48 65.16 -12.19 69.06 C-13.04 72.59 -13.8 75.4 -16.25 78.19 C-20.22 79.51 -23.31 79.51 -27.19 78.06 C-33.76 74.4 -38.52 65.4 -40.75 58.38 C-43.12 44.88 -41.66 30.3 -34.11 18.71 C-24.38 5.54 -16.35 0.01 0 0 Z " fill="#FCFBFB" transform="translate(80.25,278.8125)"/>
<path d="M0 0 C3.46 25.65 -6.59 48.43 -19 70 C-19.56 70.97 -20.12 71.95 -20.69 72.95 C-22.41 75.93 -24.14 78.91 -25.88 81.88 C-26.41 82.8 -26.94 83.72 -27.5 84.67 C-34.53 96.58 -34.53 96.58 -39.5 99.44 C-42.45 100.1 -44.11 99.85 -47 99 C-57.54 89.94 -71.12 64.54 -72.27 50.74 C-72.62 37.65 -68.79 31.34 -59.92 21.88 C-46.89 8.48 -19.03 -12.68 0 0 Z " fill="#D07E31" transform="translate(149,124)"/>
<path d="M0 0 C11.88 0 23.76 0 36 0 C39.59 13.15 42.73 28.59 36.77 41.7 C35.31 43.94 33.72 45.95 32 48 C31.44 48.79 30.88 49.58 30.3 50.4 C26.7 55.4 23.56 58.43 18 61 C17.21 61.42 16.43 61.84 15.62 62.27 C1.88 69.54 -11.18 69.15 -26 65 C-32.05 61.99 -36.28 57.36 -38.79 51.01 C-43.19 37.43 -46.31 22.26 -40.07 8.79 C-39 7 -39 7 -37 5 C-34.39 4.77 -34.39 4.77 -31.12 4.8 C-29.37 4.81 -29.37 4.81 -27.58 4.82 C-26.36 4.84 -25.14 4.86 -23.88 4.88 C-22.64 4.88 -21.41 4.89 -20.14 4.9 C-17.1 4.93 -14.05 4.96 -11 5 C-10.89 5.9 -10.78 6.8 -10.66 7.73 C-10.24 11.14 -9.82 14.55 -9.4 17.96 C-9.22 19.42 -9.04 20.88 -8.86 22.35 C-8.34 26.56 -7.81 30.78 -7.26 34.99 C-7.01 36.94 -6.77 38.89 -6.53 40.85 C-6.37 42.01 -6.22 43.17 -6.05 44.36 C-5.92 45.38 -5.79 46.4 -5.66 47.45 C-4.95 50.2 -4.19 51.25 -2 53 C-1.92 48.26 -1.99 43.66 -2.5 38.94 C-5.28 10.56 -5.28 10.56 0 0 Z " fill="#F4939A" transform="translate(258,284)"/>
<path d="M0 0 C0.29 1.15 0.29 1.15 0.59 2.32 C3.5 12.74 7.86 26.18 16.93 32.86 C21.45 35.35 26.18 37.16 31 39 C30.67 44.28 30.34 49.56 30 55 C8.22 55 -13.56 55 -36 55 C-39.47 45.6 -39.47 45.6 -43 36 C-47.43 29.01 -51.65 24.16 -58 19 C-58 18.34 -58 17.68 -58 17 C-57.24 16.96 -56.49 16.92 -55.71 16.88 C-52.22 16.69 -48.74 16.47 -45.25 16.25 C-44.06 16.19 -42.88 16.13 -41.65 16.06 C-30.26 15.32 -20.56 12.56 -10.94 6.38 C-10.3 5.98 -9.67 5.59 -9.01 5.18 C-0.69 0 -0.69 0 0 0 Z " fill="#FCFBFB" transform="translate(179,262)"/>
<path d="M0 0 C4.68 -0.07 9.35 -0.13 14.03 -0.16 C15.62 -0.18 17.21 -0.2 18.79 -0.23 C37.48 -0.53 37.48 -0.53 45.94 4.88 C49.2 8.24 49.89 10.81 50.31 15.44 C49.86 20.6 48.39 23.68 44.62 27.25 C42.13 28.91 39.83 30.03 37 31 C38.09 31.66 39.19 32.32 40.31 33 C48.12 38.69 48.36 50.08 50 59 C52.31 59 54.62 59 57 59 C57 59.99 57 60.98 57 62 C51.79 63.74 46.29 63.73 41.06 62.06 C37.12 58.12 36.43 52.67 35.07 47.4 C34.74 46.16 34.41 44.91 34.06 43.62 C33.76 42.44 33.47 41.26 33.16 40.04 C31.84 36.59 31.32 35.57 28 34 C25.03 33.67 22.06 33.34 19 33 C19 41.58 19 50.16 19 59 C21.64 59 24.28 59 27 59 C27 59.99 27 60.98 27 62 C18.09 62 9.18 62 0 62 C0 61.01 0 60.02 0 59 C2.64 59 5.28 59 8 59 C8 40.52 8 22.04 8 3 C5.36 3 2.72 3 0 3 C0 2.01 0 1.02 0 0 Z " fill="#FF4700" transform="translate(225,396)"/>
<path d="M0 0 C4.23 -0.07 8.46 -0.13 12.7 -0.16 C14.13 -0.18 15.57 -0.2 17 -0.23 C26.59 -0.4 35.46 -0.3 43.94 4.75 C47.5 8.63 49.14 12.77 49.38 18 C49.12 22.99 47.92 27.08 44.3 30.7 C36.15 37.31 29.72 37 19 37 C19 44.26 19 51.52 19 59 C21.97 59 24.94 59 28 59 C28 59.99 28 60.98 28 62 C18.76 62 9.52 62 0 62 C0 61.01 0 60.02 0 59 C2.64 59 5.28 59 8 59 C8 40.52 8 22.04 8 3 C5.36 3 2.72 3 0 3 C0 2.01 0 1.02 0 0 Z " fill="#FF4700" transform="translate(148,396)"/>
<path d="M0 0 C6.4 5.97 9.24 15.19 9.89 23.64 C10.08 34.06 7.68 43.03 0.69 51 C-5.53 56.18 -12.78 58.52 -20.85 58.32 C-27.14 57.51 -34.25 55.14 -38.97 50.75 C-46.18 41.36 -48.09 31.54 -47.31 20 C-45.97 12.15 -42.6 4.58 -36.39 -0.6 C-24.32 -8.6 -12.03 -7.26 0 0 Z M-29.73 2.73 C-36.77 13.05 -36.81 27.02 -34.62 39 C-33.01 44.92 -30.05 49.49 -25.44 53.5 C-21.65 55.32 -19.47 55.59 -15.31 55 C-10.11 52.25 -6.5 49.16 -4.4 43.57 C-1.11 32.25 -0.17 17.71 -5.35 6.82 C-7.91 2.31 -10.54 -0.71 -15.31 -3 C-21.65 -3.91 -25.65 -2.25 -29.73 2.73 Z " fill="#FF4700" transform="translate(355.3125,401)"/>
<path d="M0 0 C5.64 4.17 7.51 10.43 8.86 17.08 C9.59 24.03 5.81 30.59 1.86 36.08 C-2.4 39 -7.17 38.58 -12.14 38.08 C-16.66 36.91 -20.31 34.84 -23.14 31.08 C-26.01 24.17 -26.63 15.24 -24.01 8.14 C-18.92 -0.17 -9.33 -4.01 0 0 Z " fill="#692D16" transform="translate(202.13671875,161.91796875)"/>
<path d="M0 0 C2.87 2.15 3.89 3.95 4.8 7.4 C4.84 8.29 4.88 9.17 4.93 10.09 C5.59 10.09 6.25 10.09 6.93 10.09 C7.22 17.86 7.36 25.43 2.93 32.09 C0.43 34.58 -0.35 35.08 -3.9 35.11 C-15.23 34.42 -15.23 34.42 -20.07 30.09 C-20.59 29.63 -21.11 29.18 -21.64 28.71 C-24.78 25.15 -25.04 20.07 -25.11 15.48 C-24.77 10.03 -23.84 6.26 -20.07 2.09 C-14.68 -1.96 -6.22 -2.74 0 0 Z " fill="#692D16" transform="translate(319.07421875,162.9140625)"/>
<path d="M0 0 C3.04 1.81 4.54 3.21 6.31 6.25 C8.24 13.94 6.67 20.09 3 27 C0.73 29.81 -0.02 30 -3.75 30.94 C-8.42 31.36 -11.41 29.9 -15 27 C-19.28 22.38 -20.42 18.58 -20.34 12.42 C-19.74 8.2 -17.79 5.16 -15 2 C-10.17 -1.62 -5.64 -1.53 0 0 Z " fill="#8F2F06" transform="translate(159,229)"/>
<path d="M0 0 C3.16 1.85 5.45 4.15 7.44 7.25 C8.56 12.74 7.81 17.39 5.31 22.38 C1.76 26.41 -1.25 27.78 -6.56 28.44 C-10.66 27.92 -12.18 26.98 -15 24 C-17.8 19.54 -17.1 14.94 -16 10 C-12.27 2.19 -8.82 -2.06 0 0 Z " fill="#8F2F06" transform="translate(358,227)"/>
<path d="M0 0 C10.5 0 10.5 0 15 3 C19.04 7.45 19.29 11.71 19.21 17.5 C18.8 22.32 16.99 25.08 13.5 28.31 C8.6 31.62 6.54 31 0 31 C0 20.77 0 10.54 0 0 Z " fill="#FFFFFF" transform="translate(167,399)"/>
<path d="M0 0 C12.92 0 12.92 0 18 4 C20.52 7.95 20.58 12.43 20 17 C18.42 21.18 16.86 23.71 13 26 C10 27 10 27 0 27 C0 18.09 0 9.18 0 0 Z " fill="#FFFFFF" transform="translate(244,399)"/>
<path d="M0 0 C2.62 0.44 2.62 0.44 5.06 2.56 C6.62 5.44 6.62 5.44 6.19 8.62 C4.62 11.44 4.62 11.44 2 12.81 C1.22 13.02 0.43 13.22 -0.38 13.44 C-2.94 11.31 -2.94 11.31 -5.38 8.44 C-5.29 4.03 -4.77 0.88 0 0 Z " fill="#FFFFFF" transform="translate(197.375,166.5625)"/>
<path d="M0 0 C5.56 1.33 5.56 1.33 7.56 4.38 C8 7 8 7 7 9.31 C5 11 5 11 2 11.5 C-1 11 -1 11 -3 9.31 C-4 7 -4 7 -3.31 4.38 C-2 2 -2 2 0 0 Z " fill="#FFFFFF" transform="translate(312,166)"/>
</svg>
