<?xml version="1.0" encoding="UTF-8"?>
<!-- Generator: visioncortex VTracer 0.6.4 -->
<svg version="1.1" xmlns="http://www.w3.org/2000/svg" width="512" height="512">
<path d="M0 0 C168.96 0 337.92 0 512 0 C512 168.96 512 337.92 512 512 C343.04 512 174.08 512 0 512 C0 343.04 0 174.08 0 0 Z " fill="#692D16" transform="translate(0,0)"/>
<path d="M0 0 C168.96 0 337.92 0 512 0 C512 117.48 512 234.96 512 356 C503.09 356 494.18 356 485 356 C484.48 352.66 483.97 349.32 483.44 345.88 C480.7 330 474.59 317.18 461.38 307.38 C446.86 297.77 435.13 294.63 418 295 C417.74 294.22 417.74 294.22 417.48 293.42 C415.73 288.09 413.85 282.83 411.87 277.58 C411.02 275.06 410.46 272.61 410 270 C410.5 269.62 410.99 269.24 411.5 268.86 C422.58 259.88 426.89 248.18 431 235 C431.21 234.34 431.43 233.69 431.65 233.01 C436.62 217.59 436.56 202.75 429.88 187.88 C420.5 170.81 402.95 163.5 385.02 158.12 C373.11 154.74 361.01 153.23 349 157 C348.9 156.25 348.8 155.5 348.7 154.73 C348.55 153.75 348.4 152.76 348.25 151.75 C348.11 150.78 347.97 149.8 347.83 148.8 C346.8 145.32 346 144.05 343 142 C340.09 141.39 337.22 141.3 334.25 141.25 C333.46 141.22 332.66 141.19 331.85 141.16 C329.9 141.09 327.95 141.04 326 141 C324.13 132.15 323.71 123.53 323.79 114.53 C323.81 112.34 323.81 110.15 323.81 107.96 C323.85 97.3 323.85 97.3 325 95 C326.19 95.03 327.38 95.07 328.61 95.11 C330.18 95.13 331.75 95.16 333.31 95.19 C334.1 95.21 334.88 95.24 335.69 95.26 C336.45 95.27 337.21 95.28 337.99 95.29 C338.68 95.31 339.38 95.32 340.1 95.34 C342.62 94.89 343.49 94.03 345 92 C345.18 88.59 345.18 88.59 344.75 84.88 C344.59 82.98 344.59 82.98 344.42 81.05 C344.33 78.13 344.33 78.13 343 77 C337 75.83 331.09 75.9 325 76 C324.94 74.77 324.88 73.54 324.82 72.27 C324.73 70.64 324.65 69.01 324.56 67.38 C324.52 66.57 324.48 65.76 324.44 64.93 C324.21 60.55 323.83 56.31 323 52 C319.29 50.72 316.27 51.21 312.44 51.81 C311.3 51.98 310.17 52.16 309 52.33 C305.84 52.85 305.84 52.85 303 55 C302.19 57.85 301.96 60.54 301.75 63.5 C300.3 70.29 294.45 73.22 288.99 76.86 C287 78 287 78 285 78 C282.56 83.64 282.81 88.98 283 95 C286.3 95.66 289.6 96.32 293 97 C293 114.16 293 131.32 293 149 C286.73 148.01 280.46 147.02 274 146 C273.87 124.5 273.97 103.32 277 82 C268.13 76.08 250.2 80.85 240 82 C240 86.62 240 91.24 240 96 C241.3 96.14 242.6 96.29 243.94 96.44 C247.88 96.88 247.88 96.88 249 98 C249.93 103.82 250.16 109.49 250.12 115.38 C250.12 116.23 250.12 117.09 250.12 117.97 C250.06 126.67 249.59 135.33 249 144 C243.56 145.81 237.66 145.98 231.96 146.52 C230.42 146.67 228.88 146.83 227.34 147 C218.26 147.99 210.68 148.2 201.76 145.73 C192.8 143.35 182.85 144.67 174 147 C174.99 144.03 174.99 144.03 176 141 C176.99 141.02 176.99 141.02 178 141.05 C181.02 141.11 184.04 141.15 187.06 141.19 C188.1 141.21 189.14 141.24 190.21 141.26 C196.38 141.32 200.52 140.83 206 138 C207.57 137.57 207.57 137.57 209.17 137.12 C212.7 135.72 214.05 134.02 216.31 131 C216.99 130.11 217.67 129.23 218.36 128.31 C222.8 122.04 221.52 112.96 220.55 105.56 C220.09 103.03 219.58 100.51 219 98 C219.76 97.99 220.52 97.97 221.3 97.96 C227.29 97.88 227.29 97.88 232.19 94.94 C233.24 91.12 233.2 87.96 233 84 C219.65 81.14 206.29 80.89 192.69 80.75 C191.5 80.73 190.3 80.71 189.07 80.69 C179.39 80.65 171.34 81.99 163.12 87.38 C162.24 87.94 161.36 88.5 160.45 89.09 C155.31 93.11 152.6 97.78 151 104 C149.81 116.34 155.7 126.48 163 136 C162.11 136.81 161.22 137.62 160.3 138.45 C159.11 139.53 157.93 140.61 156.75 141.69 C155.87 142.48 155.87 142.48 154.97 143.29 C152.3 145.74 150.09 147.86 148.06 150.89 C146 153 146 153 142.45 153.31 C141.05 153.22 139.65 153.12 138.25 153 C117.68 152.21 101.51 163.55 86.82 177 C77.07 186.44 70.05 196.56 69.69 210.5 C69.88 222.32 74.98 232.77 80.25 243.12 C80.78 244.21 81.32 245.3 81.87 246.43 C88.53 259.73 88.53 259.73 99 270 C98.83 270.52 98.66 271.05 98.48 271.59 C94.66 283.82 91.91 296.33 90 309 C88.98 309.01 88.98 309.01 87.94 309.03 C84.81 309.08 81.69 309.17 78.56 309.25 C77.49 309.26 76.42 309.28 75.32 309.29 C64.1 309.64 56.2 313.38 48 321 C38.21 331.5 34.35 342.35 31 356 C20.77 356 10.54 356 0 356 C0 238.52 0 121.04 0 0 Z " fill="#FEFEFE" transform="translate(0,0)"/>
<path d="M0 0 C9.9 0 19.8 0 30 0 C30.52 2.72 31.03 5.44 31.56 8.25 C34.04 19.97 38.74 30.15 49 37 C54.18 39.48 59.64 40.02 65.15 38.35 C70.53 36.02 72.57 33.27 75 28 C75.71 28.29 76.43 28.58 77.16 28.88 C86.45 32.48 92.64 32.72 102.11 29.41 C107.12 26.96 110.52 22.96 113 18 C118 20 118 20 120.44 21.19 C123.76 22.24 125.66 21.97 129 21 C136.45 16.72 139.78 7.5 143 0 C165.11 0 187.22 0 210 0 C211.98 6.93 211.98 6.93 214 14 C217.52 21.57 222.41 25.51 230 29 C246.23 34.07 262.47 33.49 277.69 25.81 C287.56 19.85 296.8 10.4 302 0 C324.11 0 346.22 0 369 0 C370.98 3.96 370.98 3.96 373 8 C378.26 11.21 386.22 11.6 392.23 10.65 C394.27 10.09 394.27 10.09 397 9 C398.49 8.5 398.49 8.5 400 8 C400.43 9.24 400.87 10.48 401.31 11.75 C403.15 15.28 404.79 16.9 408.44 18.5 C414.13 20.23 419.78 20.38 425.69 20.44 C426.58 20.45 427.47 20.46 428.39 20.47 C435.22 20.38 441.18 19.47 446.5 14.81 C447.24 13.92 447.24 13.92 448 13 C448.52 13.29 449.04 13.58 449.58 13.88 C455.71 16.97 461.16 18.17 468 17 C476.23 13.64 479.69 7.55 484 0 C493.24 0 502.48 0 512 0 C512 48.18 512 96.36 512 146 C343.04 146 174.08 146 0 146 C0 97.82 0 49.64 0 0 Z " fill="#FEFEFE" transform="translate(0,366)"/>
<path d="M0 0 C1.56 4.88 1.12 10.28 1.06 15.38 C1.06 16.21 1.05 17.04 1.05 17.89 C1.04 19.93 1.02 21.96 1 24 C1.99 23.5 1.99 23.5 3 23 C8.36 22.63 13.74 22.93 19 24 C21.8 26.8 21.54 28.97 21.88 32.88 C22 34.11 22.12 35.34 22.24 36.62 C22 40 22 40 20.45 42.43 C17.14 44.56 14.85 44.43 10.94 44.31 C9.71 44.29 8.48 44.26 7.21 44.24 C4 44 4 44 1 43 C0.97 47.62 0.96 52.24 0.95 56.87 C0.94 58.43 0.93 60 0.92 61.57 C0.87 70.77 1.01 79.84 2 89 C3.17 88.94 4.34 88.88 5.54 88.82 C7.09 88.78 8.64 88.73 10.19 88.69 C10.96 88.65 11.73 88.6 12.52 88.56 C16.88 88.47 18.47 88.58 22 91.41 C25.51 95.96 25.43 100.36 25 106 C23.54 112.46 23.54 112.46 21 115 C17.88 115.23 17.88 115.23 14.12 115.19 C12.89 115.18 11.66 115.17 10.38 115.17 C7.65 115.03 5.61 114.66 3 114 C0.67 113.87 -1.67 113.77 -4 113.69 C-12.41 113.25 -19.78 111.19 -27.25 107.31 C-30.88 105.58 -34.01 105.34 -38 105 C-38.33 106.32 -38.66 107.64 -39 109 C-40.32 109.33 -41.64 109.66 -43 110 C-43 110.66 -43 111.32 -43 112 C-48.78 112.17 -54.57 112.33 -60.35 112.48 C-62.32 112.54 -64.29 112.59 -66.26 112.65 C-69.08 112.73 -71.91 112.81 -74.74 112.88 C-75.62 112.91 -76.5 112.93 -77.41 112.96 C-78.23 112.98 -79.05 113 -79.9 113.02 C-80.62 113.04 -81.34 113.06 -82.08 113.08 C-84 113 -84 113 -87 112 C-88.29 104.57 -88.29 104.57 -87 101 C-87.99 101.5 -87.99 101.5 -89 102 C-91 102.04 -93 102.04 -95 102 C-94.78 102.63 -94.57 103.26 -94.34 103.91 C-91.49 113.07 -89.7 124.16 -93.91 133.2 C-99.59 142.59 -108.02 147.74 -118.62 150.38 C-131.3 152.26 -142.83 151.19 -155.25 148.25 C-156.32 148 -157.39 147.75 -158.5 147.49 C-165.64 145.67 -170.97 143.59 -176 138 C-176.2 138.97 -176.39 139.94 -176.59 140.94 C-178.9 151.6 -182.74 160.49 -188 170 C-188.54 170.98 -189.07 171.96 -189.62 172.96 C-194.8 182.4 -199.99 191.83 -205.62 201.01 C-206.15 201.88 -206.68 202.74 -207.22 203.63 C-210.09 207.46 -212.92 209.63 -217.44 211.19 C-221 211 -221 211 -222.49 209.72 C-226 205.43 -229.04 201.05 -231.81 196.25 C-232.23 195.53 -232.65 194.81 -233.09 194.07 C-241.24 179.83 -248.42 166.74 -247 150 C-243.32 136.59 -226.79 123.87 -215.24 116.94 C-204.14 110.66 -193.79 107.33 -181 108 C-180.71 106.91 -180.42 105.81 -180.12 104.69 C-176.97 96.21 -169.07 89.39 -162 84 C-162.56 83.33 -162.56 83.33 -163.14 82.64 C-169.7 74.39 -174.49 65 -174.27 54.24 C-173.38 46.84 -170.23 41.21 -164.42 36.6 C-156.24 31.18 -148.76 27.88 -138.91 27.87 C-137.74 27.87 -136.57 27.86 -135.36 27.86 C-133.51 27.87 -133.51 27.87 -131.62 27.88 C-130.36 27.88 -129.1 27.88 -127.8 27.89 C-100.56 28.05 -100.56 28.05 -91 32 C-89.57 34.87 -89.69 36.81 -90 40 C-91.38 43.31 -91.38 43.31 -94 46 C-97.34 46.8 -100.58 46.99 -104 47 C-103.78 47.82 -103.78 47.82 -103.56 48.66 C-101.56 57.22 -99.55 67.19 -103.68 75.3 C-105.66 78.04 -107.69 80.54 -110 83 C-110.49 83.56 -110.98 84.12 -111.48 84.7 C-113.38 86.33 -115.11 86.9 -117.5 87.62 C-118.27 87.86 -119.05 88.1 -119.84 88.35 C-120.56 88.57 -121.27 88.78 -122 89 C-123.49 89.5 -123.49 89.5 -125 90 C-126.7 90.08 -128.4 90.11 -130.11 90.1 C-131.09 90.09 -132.07 90.09 -133.08 90.09 C-134.11 90.08 -135.13 90.07 -136.19 90.06 C-137.22 90.06 -138.26 90.05 -139.33 90.05 C-141.88 90.04 -144.44 90.02 -147 90 C-147.99 91.98 -147.99 91.98 -149 94 C-147.24 93.5 -147.24 93.5 -145.44 93 C-136.56 91.06 -127.92 91.15 -119.22 93.6 C-110.3 95.77 -101.71 94.61 -92.69 93.69 C-90.96 93.53 -89.24 93.37 -87.52 93.21 C-83.34 92.83 -79.17 92.42 -75 92 C-74.98 86.73 -74.96 81.47 -74.95 76.2 C-74.94 74.42 -74.93 72.63 -74.92 70.84 C-74.91 68.26 -74.91 65.68 -74.9 63.09 C-74.9 62.3 -74.89 61.51 -74.89 60.7 C-74.89 55.71 -75.29 50.94 -76 46 C-78.64 45.34 -81.28 44.68 -84 44 C-86.41 34.36 -86.41 34.36 -84 30.33 C-80.84 28.23 -77.38 28.14 -73.69 27.81 C-72.89 27.73 -72.09 27.66 -71.27 27.58 C-51.25 25.75 -51.25 25.75 -46 30 C-46.2 31.3 -46.2 31.3 -46.4 32.62 C-48.18 45.38 -48.66 58.13 -49.12 71 C-49.21 73.24 -49.3 75.48 -49.39 77.72 C-49.6 83.15 -49.8 88.57 -50 94 C-48.8 94.13 -47.59 94.27 -46.35 94.4 C-44.78 94.58 -43.2 94.76 -41.62 94.94 C-40.83 95.02 -40.04 95.11 -39.22 95.2 C-33.23 95.89 -33.23 95.89 -31 97 C-31 79.84 -31 62.68 -31 45 C-34.3 44.34 -37.6 43.68 -41 43 C-42.49 33.72 -42.49 33.72 -42 30 C-37.84 25.27 -32.95 22.27 -27.64 18.96 C-25.04 17.03 -23.98 16.04 -23 13 C-23.03 11.3 -23.03 11.3 -23.06 9.56 C-22.99 5.67 -22.34 4.06 -20 1 C-17.29 -0.35 -14.67 -0.68 -11.69 -1.19 C-10.56 -1.39 -9.43 -1.59 -8.26 -1.79 C-4.74 -2.02 -2.94 -1.96 0 0 Z " fill="#FE4700" transform="translate(324,52)"/>
<path d="M0 0 C0 3.63 0 7.26 0 11 C14.52 11 29.04 11 44 11 C44 10.34 44 9.68 44 9 C45.32 8.67 46.64 8.34 48 8 C48.33 6.68 48.66 5.36 49 4 C55.44 3.39 59.45 4.8 65.19 7.71 C70.89 10.33 76.14 11.22 82.38 11.44 C89.03 11.81 95.05 12.46 100.74 16.12 C102.74 19.1 102.13 22.24 101.94 25.69 C101.72 34.67 103.3 42.45 106 51 C106.24 51.76 106.47 52.52 106.72 53.31 C112.21 70.75 119.06 88.9 131 103 C132.06 104.3 132.06 104.3 133.14 105.63 C140.24 113.96 148.68 121.44 159.8 122.95 C162.62 123.01 165.24 122.52 168 122 C170.58 129.28 172.67 136.4 174 144 C172.3 144.85 172.3 144.85 170.56 145.72 C154.52 153.88 142.22 164.13 135.56 181.5 C133.54 188.62 131.8 195.82 130 203 C109.21 203 88.42 203 67 203 C68.13 180.42 68.13 180.42 74 172 C78.47 164.32 81.62 155.32 83.52 146.64 C84 145 84 145 86.06 143.56 C87.02 142.79 87.02 142.79 88 142 C88.33 139.37 88.33 139.37 88 137 C85.89 136.02 85.89 136.02 83 136 C80.91 137.07 79.06 138.31 77.16 139.68 C69.69 144.26 60.47 143.94 52 143 C42.65 140.66 34.1 134.84 25.85 129.97 C19.87 126.82 14.7 125.99 8 127 C3.44 128.71 -0.74 130.96 -5 133.31 C-17.17 139.9 -27.91 144.48 -42 143 C-44.4 142.24 -45.91 141.43 -48 140 C-47.32 139.32 -46.64 138.64 -45.94 137.94 C-45.48 137.48 -45.02 137.01 -44.55 136.54 C-43.51 135.5 -42.46 134.48 -41.39 133.48 C-36.95 129.21 -33.43 124.71 -30.06 119.56 C-29.55 118.79 -29.04 118.02 -28.51 117.22 C-23.69 109.79 -19.72 102.03 -16 94 C-15.27 94.76 -14.55 95.52 -13.8 96.3 C-6.42 103.42 1.8 106.92 11.94 107.31 C17.06 107.19 21.3 105.97 26 104 C26.7 103.72 27.41 103.44 28.13 103.16 C34.08 100.53 37.61 96.64 41.14 91.27 C43.4 85.3 42.91 76.39 41.28 70.31 C38.27 63.89 33.3 60.73 27 58 C18.83 56.99 11.55 57.52 4.1 61.04 C1.45 62.25 -1.12 62.7 -4 63 C-3.93 62.45 -3.86 61.9 -3.78 61.33 C-1.91 44.61 -2.87 28.48 -6 12 C-6.4 9.77 -6.79 7.54 -7.19 5.31 C-7.46 3.87 -7.73 2.44 -8 1 C-2.25 0 -2.25 0 0 0 Z " fill="#FDFCFC" transform="translate(237,153)"/>
<path d="M0 0 C0.33 0 0.66 0 1 0 C2.84 32.25 -15.04 67.12 -34.93 91.36 C-48.08 105.55 -69.31 121.14 -89 122 C-93.9 122.13 -98.79 122.14 -103.69 122.12 C-104.97 122.13 -106.25 122.13 -107.56 122.14 C-108.81 122.14 -110.05 122.13 -111.32 122.13 C-113 122.13 -113 122.13 -114.7 122.13 C-119.54 121.94 -123.69 121.75 -127.93 119.32 C-130 117 -130 117 -130.45 114.14 C-129.51 104.42 -127.45 95.15 -124 86 C-122 85 -122 85 -119.38 84.81 C-111.61 82.94 -106.42 76.87 -102.31 70.3 C-101.76 69.34 -101.21 68.38 -100.64 67.39 C-100.03 66.31 -99.41 65.24 -98.77 64.13 C-97.8 62.42 -97.8 62.42 -96.81 60.69 C-96.14 59.51 -95.47 58.33 -94.79 57.15 C-93.46 54.82 -92.14 52.5 -90.81 50.17 C-89.29 47.51 -87.75 44.86 -86.19 42.22 C-79.96 31.6 -75.9 20.97 -73 9 C-68.61 9.98 -64.21 10.95 -59.82 11.93 C-59.02 12.11 -58.22 12.28 -57.4 12.46 C-55.83 12.81 -54.26 13.18 -52.7 13.57 C-47.49 14.83 -42.61 15.35 -37.25 15.31 C-36.47 15.31 -35.69 15.3 -34.89 15.3 C-23.98 15.08 -12.12 13.23 -4.15 5.12 C-3.1 3.89 -2.08 2.64 -1.09 1.36 C-0.55 0.68 -0.55 0.68 0 0 Z " fill="#D07F31" transform="translate(228,187)"/>
<path d="M0 0 C1.56 4.88 1.12 10.28 1.06 15.38 C1.06 16.21 1.05 17.04 1.05 17.89 C1.04 19.93 1.02 21.96 1 24 C1.99 23.5 1.99 23.5 3 23 C8.36 22.63 13.74 22.93 19 24 C21.8 26.8 21.54 28.97 21.88 32.88 C22 34.11 22.12 35.34 22.24 36.62 C22 40 22 40 20.45 42.43 C17.14 44.56 14.85 44.43 10.94 44.31 C9.71 44.29 8.48 44.26 7.21 44.24 C4 44 4 44 1 43 C0.97 47.62 0.96 52.24 0.95 56.87 C0.94 58.43 0.93 60 0.92 61.57 C0.87 70.77 1.01 79.84 2 89 C3.17 88.94 4.34 88.88 5.54 88.82 C7.09 88.78 8.64 88.73 10.19 88.69 C10.96 88.65 11.73 88.6 12.52 88.56 C16.88 88.47 18.47 88.58 22 91.41 C25.51 95.96 25.43 100.36 25 106 C23.54 112.46 23.54 112.46 21 115 C17.88 115.23 17.88 115.23 14.12 115.19 C12.89 115.18 11.66 115.17 10.38 115.17 C7.65 115.03 5.61 114.66 3 114 C0.67 113.87 -1.67 113.77 -4 113.69 C-12.41 113.25 -19.78 111.19 -27.25 107.31 C-30.88 105.58 -34.01 105.34 -38 105 C-38.5 106.98 -38.5 106.98 -39 109 C-40.32 109.33 -41.64 109.66 -43 110 C-43 110.66 -43 111.32 -43 112 C-48.78 112.17 -54.57 112.33 -60.35 112.48 C-62.32 112.54 -64.29 112.59 -66.26 112.65 C-69.08 112.73 -71.91 112.81 -74.74 112.88 C-75.62 112.91 -76.5 112.93 -77.41 112.96 C-78.23 112.98 -79.05 113 -79.9 113.02 C-80.62 113.04 -81.34 113.06 -82.08 113.08 C-84 113 -84 113 -87 112 C-88.29 104.57 -88.29 104.57 -87 101 C-87.99 101.5 -87.99 101.5 -89 102 C-91 102.04 -93 102.04 -95 102 C-94.67 103.98 -94.34 105.96 -94 108 C-94.97 107.11 -95.94 106.23 -96.94 105.31 C-100.95 101.86 -105.31 99.41 -110 97 C-109.5 96.01 -109.5 96.01 -109 95 C-106.46 94.61 -104.02 94.34 -101.46 94.15 C-100.33 94.05 -100.33 94.05 -99.18 93.96 C-96.77 93.75 -94.35 93.56 -91.94 93.38 C-90.3 93.24 -88.67 93.11 -87.04 92.97 C-83.03 92.64 -79.01 92.31 -75 92 C-74.98 86.73 -74.96 81.47 -74.95 76.2 C-74.94 74.42 -74.93 72.63 -74.92 70.84 C-74.91 68.26 -74.91 65.68 -74.9 63.09 C-74.9 62.3 -74.89 61.51 -74.89 60.7 C-74.89 55.71 -75.29 50.94 -76 46 C-78.64 45.34 -81.28 44.68 -84 44 C-86.41 34.36 -86.41 34.36 -84 30.33 C-80.84 28.23 -77.38 28.14 -73.69 27.81 C-72.89 27.73 -72.09 27.66 -71.27 27.58 C-51.25 25.75 -51.25 25.75 -46 30 C-46.13 30.86 -46.26 31.73 -46.4 32.62 C-48.18 45.38 -48.66 58.13 -49.12 71 C-49.21 73.24 -49.3 75.48 -49.39 77.72 C-49.6 83.15 -49.8 88.57 -50 94 C-48.8 94.13 -47.59 94.27 -46.35 94.4 C-44.78 94.58 -43.2 94.76 -41.62 94.94 C-40.83 95.02 -40.04 95.11 -39.22 95.2 C-33.23 95.89 -33.23 95.89 -31 97 C-31 79.84 -31 62.68 -31 45 C-34.3 44.34 -37.6 43.68 -41 43 C-42.49 33.72 -42.49 33.72 -42 30 C-37.84 25.27 -32.95 22.27 -27.64 18.96 C-25.04 17.03 -23.98 16.04 -23 13 C-23.02 11.87 -23.04 10.73 -23.06 9.56 C-22.99 5.67 -22.34 4.06 -20 1 C-17.29 -0.35 -14.67 -0.68 -11.69 -1.19 C-10.56 -1.39 -9.43 -1.59 -8.26 -1.79 C-4.74 -2.02 -2.94 -1.96 0 0 Z " fill="#FF4700" transform="translate(324,52)"/>
<path d="M0 0 C1.12 0.63 2.24 1.26 3.39 1.9 C4.22 2.33 5.04 2.77 5.88 3.21 C14.86 8.25 20.18 15.89 23.49 25.51 C27.16 39.28 24.38 51.36 20.14 64.59 C19.87 65.47 19.59 66.35 19.31 67.25 C15.2 79.55 7.89 88.28 -3.55 94.37 C-7.46 95.38 -10.61 94.49 -14.03 92.48 C-37.4 73.53 -52.43 41.09 -57.61 11.9 C-58.32 4.58 -57.89 -0.93 -54.19 -7.36 C-42.53 -20.19 -12.02 -6.54 0 0 Z " fill="#D07E31" transform="translate(402.60546875,172.09765625)"/>
<path d="M0 0 C4.88 2.87 9.37 6.02 13.74 9.61 C14.47 10.21 15.2 10.8 15.96 11.41 C24.4 18.99 29.65 30.39 30.74 41.61 C30.85 42.64 30.85 42.64 30.96 43.7 C31.21 46.08 31.42 48.47 31.61 50.86 C31.69 51.63 31.76 52.4 31.84 53.19 C32.18 58.56 31.29 61.33 27.74 65.61 C23.96 69.39 21.09 70.52 15.74 70.61 C11.37 69.56 7.59 68.21 4.74 64.61 C4.07 61.94 3.96 59.38 3.74 56.61 C2.09 56.61 0.44 56.61 -1.26 56.61 C-2.69 61.29 -3.67 65.74 -4.26 70.61 C-9.65 72.84 -14.53 72.95 -20.26 72.93 C-21.14 72.94 -22.01 72.96 -22.92 72.97 C-28.14 72.98 -31.73 72.48 -36.26 69.61 C-36.59 69.28 -36.92 68.95 -37.26 68.61 C-37.21 66.47 -37.21 66.47 -36.95 63.8 C-36.87 62.93 -36.79 62.06 -36.71 61.16 C-36.26 58.63 -35.53 56.83 -34.26 54.61 C-35.25 53.62 -36.24 52.63 -37.26 51.61 C-40.16 53.19 -42.36 54.71 -44.7 57.05 C-49.3 61.65 -52.36 63.86 -58.95 63.93 C-62.07 63.84 -64.28 63.61 -67.26 62.61 C-72.02 53.1 -68.94 42.23 -65.8 32.7 C-61.19 19.81 -51.27 8.16 -39.26 1.61 C-38.4 1.13 -37.54 0.64 -36.66 0.14 C-25.28 -5.49 -11.42 -5.61 0 0 Z " fill="#FCFBFB" transform="translate(444.26171875,306.38671875)"/>
<path d="M0 0 C1.54 -0.02 1.54 -0.02 3.11 -0.04 C8.77 -0.05 13.39 0.39 18.75 2.19 C20.33 2.41 21.91 2.62 23.5 2.81 C33.12 4.69 41.19 12.39 46.75 20.19 C48.31 22.78 49.57 25.41 50.75 28.19 C51.05 28.79 51.35 29.39 51.66 30.01 C54.67 36.67 55.14 44.67 52.99 51.66 C51.24 55.36 49.14 58.82 45.75 61.19 C43.44 61.38 43.44 61.38 40.75 60.19 C38.93 58.43 37.24 56.61 35.59 54.68 C33.21 52.75 31.74 52.91 28.75 53.19 C28.53 53.91 28.31 54.64 28.09 55.38 C26.08 61.5 24.25 66.52 18.75 70.19 C13.33 72.49 9.38 72.37 3.75 71.19 C0.88 70 0.88 70 -1.25 68.19 C-2.56 65 -2.56 65 -3.25 62.19 C-6.17 61.94 -6.17 61.94 -9.25 62.19 C-11.48 65.16 -11.48 65.16 -12.19 69.06 C-13.04 72.59 -13.8 75.4 -16.25 78.19 C-20.22 79.51 -23.31 79.51 -27.19 78.06 C-33.76 74.4 -38.52 65.4 -40.75 58.38 C-43.12 44.88 -41.66 30.3 -34.11 18.71 C-24.38 5.54 -16.35 0.01 0 0 Z " fill="#FCFBFB" transform="translate(80.25,317.8125)"/>
<path d="M0 0 C0.06 1.7 0.06 1.7 0.11 3.44 C0.23 12.68 0.23 12.68 2.56 21.5 C6.17 30.28 3.41 39.48 0 48 C-5.4 59.84 -12.22 71.05 -18.92 82.19 C-19.89 83.81 -20.84 85.44 -21.79 87.07 C-28.49 98.56 -28.49 98.56 -33.5 101.44 C-36.45 102.1 -38.11 101.85 -41 101 C-51.54 91.94 -65.12 66.54 -66.27 52.74 C-66.62 39.65 -62.79 33.34 -53.92 23.88 C-40.84 10.42 -19.78 -5.3 0 0 Z " fill="#D07E31" transform="translate(143,161)"/>
<path d="M0 0 C11.88 0 23.76 0 36 0 C39.59 13.15 42.73 28.59 36.77 41.7 C35.31 43.94 33.72 45.95 32 48 C31.44 48.79 30.88 49.58 30.3 50.4 C26.7 55.4 23.56 58.43 18 61 C17.21 61.42 16.43 61.84 15.62 62.27 C1.88 69.54 -11.18 69.15 -26 65 C-32.05 61.99 -36.28 57.36 -38.79 51.01 C-43.19 37.43 -46.31 22.26 -40.07 8.79 C-39 7 -39 7 -37 5 C-34.39 4.77 -34.39 4.77 -31.12 4.8 C-29.37 4.81 -29.37 4.81 -27.58 4.82 C-26.36 4.84 -25.14 4.86 -23.88 4.88 C-22.64 4.88 -21.41 4.89 -20.14 4.9 C-17.1 4.93 -14.05 4.96 -11 5 C-10.89 5.9 -10.78 6.8 -10.66 7.73 C-10.24 11.14 -9.82 14.55 -9.4 17.96 C-9.22 19.42 -9.04 20.88 -8.86 22.35 C-8.34 26.56 -7.81 30.78 -7.26 34.99 C-7.01 36.94 -6.77 38.89 -6.53 40.85 C-6.37 42.01 -6.22 43.17 -6.05 44.36 C-5.92 45.38 -5.79 46.4 -5.66 47.45 C-4.95 50.2 -4.19 51.25 -2 53 C-1.92 48.26 -1.99 43.66 -2.5 38.94 C-5.28 10.56 -5.28 10.56 0 0 Z " fill="#F4939A" transform="translate(258,323)"/>
<path d="M0 0 C-0.13 0.86 -0.26 1.73 -0.4 2.62 C-2.18 15.38 -2.66 28.13 -3.12 41 C-3.21 43.24 -3.3 45.48 -3.39 47.72 C-3.6 53.15 -3.8 58.57 -4 64 C-2.81 64.12 -1.62 64.24 -0.39 64.37 C1.18 64.54 2.75 64.71 4.31 64.88 C5.1 64.95 5.88 65.03 6.69 65.11 C7.83 65.24 7.83 65.24 8.99 65.37 C10.03 65.48 10.03 65.48 11.1 65.59 C13 66 13 66 16 68 C16.99 70.62 17.42 73.25 18 76 C14.7 75.67 11.4 75.34 8 75 C7.5 76.98 7.5 76.98 7 79 C5.68 79.33 4.36 79.66 3 80 C3 80.66 3 81.32 3 82 C-2.78 82.17 -8.57 82.33 -14.35 82.48 C-16.32 82.54 -18.29 82.59 -20.26 82.65 C-23.08 82.73 -25.91 82.81 -28.74 82.88 C-29.62 82.91 -30.5 82.93 -31.41 82.96 C-32.23 82.98 -33.05 83 -33.9 83.02 C-34.62 83.04 -35.34 83.06 -36.08 83.08 C-38 83 -38 83 -41 82 C-42.29 74.57 -42.29 74.57 -41 71 C-41.99 71.5 -41.99 71.5 -43 72 C-45 72.04 -47 72.04 -49 72 C-48.67 73.98 -48.34 75.96 -48 78 C-48.97 77.11 -49.94 76.23 -50.94 75.31 C-54.95 71.86 -59.31 69.41 -64 67 C-63.5 66.01 -63.5 66.01 -63 65 C-60.46 64.61 -58.02 64.34 -55.46 64.15 C-54.33 64.05 -54.33 64.05 -53.18 63.96 C-50.77 63.75 -48.35 63.56 -45.94 63.38 C-44.3 63.24 -42.67 63.11 -41.04 62.97 C-37.03 62.64 -33.01 62.31 -29 62 C-28.98 56.73 -28.96 51.47 -28.95 46.2 C-28.94 44.42 -28.93 42.63 -28.92 40.84 C-28.91 38.26 -28.91 35.68 -28.9 33.09 C-28.9 32.3 -28.89 31.51 -28.89 30.7 C-28.89 25.71 -29.29 20.94 -30 16 C-32.64 15.34 -35.28 14.68 -38 14 C-40.41 4.36 -40.41 4.36 -38 0.33 C-34.84 -1.77 -31.38 -1.86 -27.69 -2.19 C-26.89 -2.27 -26.09 -2.34 -25.27 -2.42 C-5.25 -4.25 -5.25 -4.25 0 0 Z " fill="#FE4700" transform="translate(278,82)"/>
<path d="M0 0 C0.29 1.15 0.29 1.15 0.59 2.32 C3.5 12.74 7.86 26.18 16.93 32.86 C21.45 35.35 26.18 37.16 31 39 C30.67 44.28 30.34 49.56 30 55 C8.22 55 -13.56 55 -36 55 C-39.47 45.6 -39.47 45.6 -43 36 C-47.43 29.01 -51.65 24.16 -58 19 C-58 18.34 -58 17.68 -58 17 C-57.24 16.96 -56.49 16.92 -55.71 16.88 C-52.22 16.69 -48.74 16.47 -45.25 16.25 C-44.06 16.19 -42.88 16.13 -41.65 16.06 C-30.26 15.32 -20.56 12.56 -10.94 6.38 C-10.3 5.98 -9.67 5.59 -9.01 5.18 C-0.69 0 -0.69 0 0 0 Z " fill="#FCFBFB" transform="translate(179,301)"/>
<path d="M0 0 C4.68 -0.07 9.35 -0.13 14.03 -0.16 C15.62 -0.18 17.21 -0.2 18.79 -0.23 C37.48 -0.53 37.48 -0.53 45.94 4.88 C49.2 8.24 49.89 10.81 50.31 15.44 C49.86 20.6 48.39 23.68 44.62 27.25 C42.13 28.91 39.83 30.03 37 31 C38.09 31.66 39.19 32.32 40.31 33 C48.12 38.69 48.36 50.08 50 59 C52.31 59 54.62 59 57 59 C57 59.99 57 60.98 57 62 C51.79 63.74 46.29 63.73 41.06 62.06 C37.12 58.12 36.43 52.67 35.07 47.4 C34.74 46.16 34.41 44.91 34.06 43.62 C33.76 42.44 33.47 41.26 33.16 40.04 C31.84 36.59 31.32 35.57 28 34 C25.03 33.67 22.06 33.34 19 33 C19 41.58 19 50.16 19 59 C21.64 59 24.28 59 27 59 C27 59.99 27 60.98 27 62 C18.09 62 9.18 62 0 62 C0 61.01 0 60.02 0 59 C2.64 59 5.28 59 8 59 C8 40.52 8 22.04 8 3 C5.36 3 2.72 3 0 3 C0 2.01 0 1.02 0 0 Z " fill="#FF4700" transform="translate(230,423)"/>
<path d="M0 0 C4.23 -0.07 8.46 -0.13 12.7 -0.16 C14.13 -0.18 15.57 -0.2 17 -0.23 C26.59 -0.4 35.46 -0.3 43.94 4.75 C47.5 8.63 49.14 12.77 49.38 18 C49.12 22.99 47.92 27.08 44.3 30.7 C36.15 37.31 29.72 37 19 37 C19 44.26 19 51.52 19 59 C21.97 59 24.94 59 28 59 C28 59.99 28 60.98 28 62 C18.76 62 9.52 62 0 62 C0 61.01 0 60.02 0 59 C2.64 59 5.28 59 8 59 C8 40.52 8 22.04 8 3 C5.36 3 2.72 3 0 3 C0 2.01 0 1.02 0 0 Z " fill="#FF4700" transform="translate(153,423)"/>
<path d="M0 0 C6.4 5.97 9.24 15.19 9.89 23.64 C10.08 34.06 7.68 43.03 0.69 51 C-5.53 56.18 -12.78 58.52 -20.85 58.32 C-27.14 57.51 -34.25 55.14 -38.97 50.75 C-46.18 41.36 -48.09 31.54 -47.31 20 C-45.97 12.15 -42.6 4.58 -36.39 -0.6 C-24.32 -8.6 -12.03 -7.26 0 0 Z M-29.73 2.73 C-36.77 13.05 -36.81 27.02 -34.62 39 C-33.01 44.92 -30.05 49.49 -25.44 53.5 C-21.65 55.32 -19.47 55.59 -15.31 55 C-10.11 52.25 -6.5 49.16 -4.4 43.57 C-1.11 32.25 -0.17 17.71 -5.35 6.82 C-7.91 2.31 -10.54 -0.71 -15.31 -3 C-21.65 -3.91 -25.65 -2.25 -29.73 2.73 Z " fill="#FF4700" transform="translate(360.3125,428)"/>
<path d="M0 0 C3.55 5.62 5.88 12.2 4.65 18.91 C2.97 23.99 0.57 30.26 -3.96 33.36 C-9.08 35.07 -14.94 34.79 -19.94 32.81 C-24.26 30.39 -26.39 28.67 -28.31 24.06 C-30.19 16.23 -30.11 8.1 -26.06 1.06 C-24.98 -0.57 -24.98 -0.57 -23.06 -1.94 C-20.19 -2.34 -17.51 -2.59 -14.62 -2.69 C-13.86 -2.73 -13.1 -2.77 -12.31 -2.82 C-3.44 -3.23 -3.44 -3.23 0 0 Z " fill="#692D16" transform="translate(206.0625,204.9375)"/>
<path d="M0 0 C3.49 2.72 5.59 5.95 7 10.09 C7.81 17.62 7.26 25.68 3 32.09 C0.5 34.58 -0.28 35.08 -3.83 35.11 C-15.16 34.42 -15.16 34.42 -20 30.09 C-20.52 29.63 -21.04 29.18 -21.57 28.71 C-24.71 25.15 -24.97 20.07 -25.04 15.48 C-24.7 10.03 -23.77 6.26 -20 2.09 C-14.67 -1.91 -6.14 -2.8 0 0 Z " fill="#692D16" transform="translate(319.00390625,201.9140625)"/>
<path d="M0 0 C5.05 0.51 8.11 4.43 11.62 7.75 C12.65 8.68 12.65 8.68 13.69 9.63 C17.09 12.82 19.77 15.34 21 20 C19.11 22.23 17.21 24.46 15.31 26.69 C14.78 27.31 14.25 27.94 13.71 28.58 C10.6 32.22 7.43 35.67 4 39 C-2.28 36.89 -6.27 32.47 -11 28 C-11.74 27.34 -12.48 26.67 -13.24 25.99 C-13.88 25.4 -14.52 24.8 -15.19 24.19 C-15.76 23.67 -16.33 23.14 -16.92 22.61 C-18 21 -18 21 -18.02 19.16 C-16.49 15.92 -14 13.69 -11.44 11.25 C-10.92 10.74 -10.4 10.24 -9.86 9.71 C-8.58 8.47 -7.29 7.23 -6 6 C-2.12 7.88 -2.12 7.88 -1 9 C-0.96 10.67 -0.96 12.33 -1 14 C-0.34 14 0.32 14 1 14 C1.03 15.94 1.05 17.87 1.06 19.81 C1.07 20.89 1.09 21.97 1.1 23.08 C1 26 1 26 0 29 C1.32 29 2.64 29 4 29 C4.33 28.01 4.66 27.02 5 26 C4.34 26 3.68 26 3 26 C3 22.37 3 18.74 3 15 C7.26 17.13 7.75 18.11 10 22 C10.66 22 11.32 22 12 22 C12.33 20.68 12.66 19.36 13 18 C12.26 17.92 11.51 17.84 10.75 17.75 C7.41 16.84 6.1 15.72 4 13 C4 11.68 4 10.36 4 9 C3.24 8.92 2.47 8.84 1.69 8.75 C-1.52 7.85 -2.29 6.78 -4 4 C-2.25 1.94 -2.25 1.94 0 0 Z " fill="#FF4700" transform="translate(351,41)"/>
<path d="M0 0 C3.78 1.62 5.1 2.68 7.06 6.31 C8.22 11.1 8.5 14.99 6.94 19.69 C3.2 24.92 -0.62 27.15 -6.94 28.31 C-11.75 28.46 -14.92 28.08 -18.81 25.12 C-21.99 20.92 -24.3 17.71 -23.88 12.31 C-23.02 7.47 -20.76 3.97 -17.13 0.66 C-12.18 -2.38 -5.48 -0.96 0 0 Z " fill="#FF4700" transform="translate(268.9375,39.6875)"/>
<path d="M0 0 C3.04 1.81 4.54 3.21 6.31 6.25 C8.24 13.94 6.67 20.09 3 27 C0.73 29.81 -0.02 30 -3.75 30.94 C-8.42 31.36 -11.41 29.9 -15 27 C-19.28 22.38 -20.42 18.58 -20.34 12.42 C-19.74 8.2 -17.79 5.16 -15 2 C-10.17 -1.62 -5.64 -1.53 0 0 Z " fill="#8F2F06" transform="translate(159,268)"/>
<path d="M0 0 C3.16 1.85 5.45 4.15 7.44 7.25 C8.56 12.74 7.81 17.39 5.31 22.38 C1.76 26.41 -1.25 27.78 -6.56 28.44 C-10.66 27.92 -12.18 26.98 -15 24 C-17.8 19.54 -17.1 14.94 -16 10 C-12.27 2.19 -8.82 -2.06 0 0 Z " fill="#8F2F06" transform="translate(358,266)"/>
<path d="M0 0 C3.26 2.53 4.9 4.69 5.61 8.83 C5.92 13.89 5.11 17.3 1.88 21.24 C-1.63 24.5 -5.4 26.78 -10.26 26.72 C-14.89 24.91 -16.23 20.35 -18.36 16.12 C-20.57 10.76 -20.73 7.4 -18.69 1.88 C-13.67 -3.62 -6.29 -2.86 0 0 Z " fill="#FFFFFF" transform="translate(194.75,100.25)"/>
<path d="M0 0 C0.72 0.11 1.45 0.23 2.2 0.34 C4.5 0.71 6.81 1.1 9.11 1.48 C10.68 1.73 12.24 1.98 13.8 2.22 C15.29 2.46 16.77 2.7 18.25 2.94 C18.95 3.05 19.66 3.16 20.38 3.28 C25.31 4.12 25.31 4.12 26.43 5.23 C26.74 7.55 26.74 7.55 26.43 10.23 C22.15 15.47 16.86 16.23 10.43 17.23 C-3.19 18.16 -3.19 18.16 -8.57 15.23 C-11.13 12 -12.57 8.55 -12.57 4.42 C-9.88 -1.46 -5.66 -0.99 0 0 Z " fill="#FFFFFF" transform="translate(181.57421875,168.765625)"/>
<path d="M0 0 C10.5 0 10.5 0 15 3 C19.04 7.45 19.29 11.71 19.21 17.5 C18.8 22.32 16.99 25.08 13.5 28.31 C8.6 31.62 6.54 31 0 31 C0 20.77 0 10.54 0 0 Z " fill="#FFFFFF" transform="translate(172,426)"/>
<path d="M0 0 C12.92 0 12.92 0 18 4 C20.52 7.95 20.58 12.43 20 17 C18.42 21.18 16.86 23.71 13 26 C10 27 10 27 0 27 C0 18.09 0 9.18 0 0 Z " fill="#FFFFFF" transform="translate(249,426)"/>
<path d="M0 0 C-0.11 2.32 -0.11 2.32 -1 5 C-3.73 6.58 -3.73 6.58 -7.19 7.81 C-8.32 8.23 -9.44 8.65 -10.61 9.08 C-13.91 9.98 -16.59 10.18 -20 10 C-19.67 11.98 -19.34 13.96 -19 16 C-20.45 14.67 -20.45 14.67 -21.94 13.31 C-25.95 9.86 -30.31 7.41 -35 5 C-34.67 4.34 -34.34 3.68 -34 3 C-31.09 2.5 -31.09 2.5 -27.23 2.15 C-26.55 2.08 -25.87 2.02 -25.17 1.96 C-22.99 1.75 -20.81 1.56 -18.62 1.38 C-17.16 1.24 -15.7 1.11 -14.23 0.97 C-3.67 0 -3.67 0 0 0 Z " fill="#692D16" transform="translate(249,144)"/>
<path d="M0 0 C2.62 0.44 2.62 0.44 5.06 2.56 C6.62 5.44 6.62 5.44 6.19 8.62 C4.62 11.44 4.62 11.44 2 12.81 C1.22 13.02 0.43 13.22 -0.38 13.44 C-2.94 11.31 -2.94 11.31 -5.38 8.44 C-5.29 4.03 -4.77 0.88 0 0 Z " fill="#FFFFFF" transform="translate(197.375,205.5625)"/>
<path d="M0 0 C5.56 1.33 5.56 1.33 7.56 4.38 C8 7 8 7 7 9.31 C5 11 5 11 2 11.5 C-1 11 -1 11 -3 9.31 C-4 7 -4 7 -3.31 4.38 C-2 2 -2 2 0 0 Z " fill="#FFFFFF" transform="translate(312,205)"/>
<path d="M0 0 C2.1 0.11 4.21 0.24 6.31 0.38 C7.48 0.44 8.66 0.51 9.86 0.59 C13 1 13 1 16 3 C16.99 5.62 17.42 8.25 18 11 C14.58 10.99 11.33 10.84 8 10 C5.97 7.19 5 5.48 5 2 C3.35 1.67 1.7 1.34 0 1 C0 0.67 0 0.34 0 0 Z " fill="#692D16" transform="translate(278,147)"/>
</svg>
